PathFileType	4	(x/y/z)	S10_BK_Cal_T01
DataRate	CameraRate	NumFrames	NumMarkers	Units	OrigDataRate	OrigDataStartFrame	OrigNumFrames
240	240	5	51	mm	240	1	2400
Frame#	Time	Sternum			R.Acromium			L.Acromium			Top.Head			R.ASIS			L.ASIS			R.PSIS			L.PSIS			R.Great.Tro			L.Great.Tro			R.Iliac.Crest			L.Iliac.Crest			V.Sacral			R.Thigh.Upper.Post			R.Thigh.Lower.Ant			R.Thigh.Lower.Post			R.Thigh.Upper.Ant			R.Knee.Lat			R.Knee.Med			R.Shank.Upper.Post			R.Shank.Lower.Ant			R.Shank.Lower.Post			R.Shank.Upper.Ant			R.Ankle.Lat			R.Ankle.Med			R.Heel.Upper			R.Heel.Med			R.Heel.Lat			R.Toe.Lat			R.Toe.Med			R.Toe.Tip			L.Thigh.Upper.Post			L.Thigh.Lower.Ant			L.Thigh.Lower.Post			L.Thigh.Upper.Ant			L.Knee.Lat			L.Knee.Med			L.Shank.Upper.Post			L.Shank.Lower.Ant			L.Shank.Lower.Post			L.Shank.Upper.Ant			L.Ankle.Lat			L.Ankle.Med			L.Heel.Upper			L.Heel.Med			L.Heel.Lat			L.Toe.Lat			L.Toe.Med			L.Toe.Tip			Cervical.Spine			Back			
		X1	Y1	Z1	X2	Y2	Z2	X3	Y3	Z3	X4	Y4	Z4	X5	Y5	Z5	X6	Y6	Z6	X7	Y7	Z7	X8	Y8	Z8	X9	Y9	Z9	X10	Y10	Z10	X11	Y11	Z11	X12	Y12	Z12	X13	Y13	Z13	X14	Y14	Z14	X15	Y15	Z15	X16	Y16	Z16	X17	Y17	Z17	X18	Y18	Z18	X19	Y19	Z19	X20	Y20	Z20	X21	Y21	Z21	X22	Y22	Z22	X23	Y23	Z23	X24	Y24	Z24	X25	Y25	Z25	X26	Y26	Z26	X27	Y27	Z27	X28	Y28	Z28	X29	Y29	Z29	X30	Y30	Z30	X31	Y31	Z31	X32	Y32	Z32	X33	Y33	Z33	X34	Y34	Z34	X35	Y35	Z35	X36	Y36	Z36	X37	Y37	Z37	X38	Y38	Z38	X39	Y39	Z39	X40	Y40	Z40	X41	Y41	Z41	X42	Y42	Z42	X43	Y43	Z43	X44	Y44	Z44	X45	Y45	Z45	X46	Y46	Z46	X47	Y47	Z47	X48	Y48	Z48	X49	Y49	Z49	X50	Y50	Z50	X51	Y51	Z51	

1	0	848.58	1249.8	300.59	716.55	1409	447.34	726.15	1433.2	141.19	708.11	1726.7	342.91	760.56	963.48	412.54	762.1	974.29	179.77	565.11	1025	325.82	574.77	1027.6	244.59	678.81	905.97	489.58	689.37	921.01	119.53	682.85	1062.2	455.32	710.62	1062.7	150.97	539.74	999.33	288.05	733	712	520.99	811.96	649.47	497.06	754.03	624.17	525.6	793.2	738.47	486.59	787.95	498.71	504.96	791.54	489.09	378.73	672.89	298.71	521.29	720.57	220.58	516.87	655.35	226.55	522.98	744.37	293.9	516	644.58	112.13	513.5	668.34	110.01	436.31	582.44	62.929	466.94	595.06	36.1	440.49	582.65	38.879	501.22	748.52	38.531	567.15	789.82	45.17	462.31	842.68	61.66	512.01	710.33	654.13	103.1	806	597.61	103.84	742.27	564.3	113.6	781.45	685.99	92.533	798.31	494.79	107.05	827.08	483.17	233.23	691.1	312.33	90.601	731.1	209.13	91.509	672.73	236.41	91.774	749.84	284.2	89.391	665.9	106.65	89.906	685.52	106.21	177.23	592.55	77.558	132.07	604.94	45.912	164.14	596.76	47.702	100.01	770.41	41.575	51.451	804.21	46.714	156.61	856.92	57.942	107.64	647.51	1471.1	300.75	566.19	1263.7	288.34
2	0.0041667	848.43	1249.7	300.46	716.54	1409.1	447.35	726.17	1433.2	141.19	708.12	1726.8	342.9	760.51	963.36	412.43	762.15	974.29	179.76	565.19	1025.1	325.86	574.85	1027.7	244.54	678.84	906.03	489.59	689.45	921.03	119.54	682.9	1062.3	455.34	710.69	1062.7	150.93	539.78	999.36	288.06	733.15	712.06	520.99	811.96	649.47	497.04	754.05	624.2	525.62	793.15	738.47	486.57	787.98	498.75	504.99	791.56	489.08	378.75	672.78	298.7	521.24	720.56	220.58	516.86	655.27	226.54	523.11	744.37	293.94	516.11	644.56	112.18	513.54	668.39	110.02	436.39	582.36	63.003	466.96	595.07	36.128	440.55	582.65	38.918	501.26	748.54	38.579	567.17	789.79	45.149	462.35	842.68	61.686	512.03	710.38	654.16	103.1	806.01	597.73	103.94	742.32	564.34	113.62	781.48	686.02	92.577	798.39	494.81	107.08	827.16	483.24	233.21	691.15	312.35	90.623	731.05	209.08	91.476	672.8	236.5	91.75	749.81	284.11	89.266	665.77	106.69	89.838	685.45	106.23	177.18	592.47	77.6	132.09	604.91	45.932	164.18	596.75	47.725	100.08	770.42	41.5	51.529	804.25	46.776	156.56	856.91	57.933	107.63	647.49	1471.1	300.79	566.28	1263.7	288.36
3	0.0083333	848.28	1249.6	300.33	716.53	1409.1	447.36	726.19	1433.3	141.18	708.14	1726.8	342.9	760.47	963.24	412.31	762.19	974.28	179.75	565.27	1025.1	325.9	574.94	1027.7	244.49	678.87	906.08	489.59	689.53	921.05	119.55	682.95	1062.3	455.37	710.75	1062.7	150.89	539.82	999.38	288.07	733.3	712.12	520.99	811.95	649.46	497.02	754.07	624.24	525.65	793.11	738.46	486.55	788	498.79	505.01	791.59	489.06	378.76	672.69	298.69	521.19	720.54	220.59	516.84	655.19	226.54	523.24	744.37	293.98	516.22	644.54	112.22	513.58	668.44	110.03	436.46	582.27	63.076	466.97	595.08	36.155	440.61	582.65	38.957	501.31	748.57	38.627	567.19	789.75	45.129	462.39	842.68	61.712	512.04	710.43	654.2	103.11	806.03	597.86	104.03	742.36	564.38	113.64	781.52	686.04	92.619	798.47	494.83	107.1	827.23	483.3	233.19	691.19	312.37	90.645	731.01	209.03	91.444	672.86	236.58	91.727	749.78	284.02	89.143	665.65	106.74	89.772	685.37	106.24	177.14	592.4	77.641	132.11	604.88	45.953	164.21	596.74	47.747	100.14	770.44	41.428	51.605	804.29	46.838	156.51	856.9	57.925	107.63	647.46	1471.2	300.84	566.37	1263.8	288.38
4	0.0125	848.13	1249.5	300.22	716.53	1409.2	447.37	726.21	1433.3	141.18	708.15	1726.8	342.89	760.42	963.13	412.21	762.24	974.28	179.75	565.35	1025.1	325.94	575.03	1027.7	244.44	678.89	906.13	489.59	689.61	921.08	119.55	683	1062.4	455.39	710.82	1062.7	150.85	539.86	999.41	288.08	733.45	712.18	520.99	811.95	649.46	497	754.09	624.27	525.68	793.07	738.46	486.54	788.02	498.83	505.04	791.61	489.05	378.77	672.59	298.68	521.14	720.53	220.59	516.83	655.11	226.53	523.37	744.37	294.02	516.33	644.53	112.26	513.62	668.49	110.04	436.53	582.19	63.146	466.99	595.09	36.182	440.67	582.65	38.995	501.35	748.59	38.673	567.2	789.72	45.109	462.42	842.67	61.738	512.05	710.49	654.23	103.12	806.05	597.98	104.12	742.41	564.42	113.66	781.55	686.07	92.659	798.55	494.84	107.13	827.29	483.35	233.17	691.24	312.39	90.665	730.98	208.99	91.413	672.92	236.66	91.704	749.76	283.93	89.027	665.53	106.79	89.709	685.3	106.25	177.09	592.33	77.68	132.13	604.86	45.972	164.24	596.74	47.768	100.2	770.45	41.361	51.676	804.33	46.898	156.46	856.88	57.917	107.62	647.44	1471.2	300.88	566.46	1263.8	288.39
5	0.016667	848	1249.4	300.11	716.52	1409.2	447.38	726.23	1433.3	141.17	708.17	1726.8	342.87	760.38	963.03	412.11	762.28	974.28	179.74	565.43	1025.1	325.97	575.12	1027.8	244.39	678.92	906.19	489.59	689.69	921.1	119.55	683.05	1062.4	455.41	710.88	1062.8	150.81	539.9	999.43	288.09	733.59	712.23	520.99	811.95	649.45	496.98	754.11	624.3	525.71	793.04	738.46	486.52	788.05	498.87	505.07	791.64	489.03	378.79	672.5	298.68	521.1	720.52	220.59	516.82	655.04	226.52	523.48	744.37	294.05	516.43	644.51	112.3	513.66	668.53	110.05	436.6	582.11	63.212	467	595.09	36.207	440.72	582.65	39.03	501.39	748.61	38.717	567.22	789.68	45.09	462.46	842.67	61.764	512.07	710.54	654.26	103.12	806.07	598.09	104.2	742.46	564.46	113.68	781.59	686.09	92.697	798.63	494.85	107.15	827.35	483.4	233.15	691.28	312.4	90.683	730.94	208.95	91.385	672.98	236.74	91.683	749.73	283.85	88.919	665.43	106.83	89.65	685.23	106.26	177.05	592.26	77.716	132.14	604.83	45.991	164.27	596.73	47.788	100.25	770.47	41.3	51.742	804.36	46.954	156.41	856.87	57.908	107.61	647.41	1471.3	300.92	566.54	1263.9	288.41
